<?xml version="1.0" ?>

<svg fill="#000000" width="32px" height="32px" viewBox="0 0 64 64" version="1.1" xml:space="preserve" xmlns="http://www.w3.org/2000/svg" xmlns:xlink="http://www.w3.org/1999/xlink">

<g id="smart_lamp"/>

<g id="e-wallet"/>

<g id="virtual_reality"/>

<g id="payment"/>

<g id="cloud_storage"/>

<g id="security_camera"/>

<g id="smart_home"/>

<g id="connection"/>

<g id="game"/>

<g id="drone"/>

<g id="smart_car"/>

<g id="camera"/>

<g id="online_business"/>

<g id="smartwatch"/>

<g id="online_shopping">

<path d="M60,16H19.4l-0.1-0.5C19,14,17.8,13,16.3,13h-1.5c-0.4-1.2-1.5-2-2.8-2H4c-0.6,0-1,0.4-1,1v4c0,0.6,0.4,1,1,1h8   c1.3,0,2.4-0.8,2.8-2h1.5c0.5,0,0.9,0.4,1,0.8l4.5,25.3l-2.7,0.5c-1.8,0.3-3.1,1.8-3.1,3.7c0,1,0.4,1.9,1.1,2.6   c0.7,0.7,1.6,1.1,2.6,1.1h3.4c0.5,2.3,2.5,4,4.9,4s4.4-1.7,4.9-4h11.2c0.5,2.3,2.5,4,4.9,4s4.4-1.7,4.9-4H56c0.6,0,1-0.4,1-1   s-0.4-1-1-1h-2.1c-0.5-2.3-2.5-4-4.9-4s-4.4,1.7-4.9,4H32.9c-0.5-2.3-2.5-4-4.9-4s-4.4,1.7-4.9,4h-3.4c-0.5,0-0.9-0.2-1.2-0.5   c-0.3-0.3-0.5-0.8-0.5-1.2c0-0.8,0.6-1.5,1.4-1.7l3.7-0.6c0,0,0,0,0,0l37-6c0.5-0.1,0.8-0.5,0.8-1V17C61,16.4,60.6,16,60,16z    M12,15H5v-2h7c0.6,0,1,0.4,1,1S12.6,15,12,15z M49,45c1.7,0,3,1.3,3,3s-1.3,3-3,3s-3-1.3-3-3S47.3,45,49,45z M28,45   c1.7,0,3,1.3,3,3s-1.3,3-3,3s-3-1.3-3-3S26.3,45,28,45z M22.7,34.9l8.2-1.1l1,5.7l-8.1,1.3L22.7,34.9z M39.1,23.1l-8,0.4l-1-5.5h8   L39.1,23.1z M40.2,18h8l0.9,4.6L41.2,23L40.2,18z M39.5,25.1l1,5.5l-8,1.1l-1.1-6.1L39.5,25.1z M30.6,31.9l-8.2,1.1L21.2,26   l8.3-0.4L30.6,31.9z M32.9,33.6l8-1.1l1,5.4l-8.1,1.3L32.9,33.6z M42.9,32.2l7.9-1l1,5.1l-7.9,1.3L42.9,32.2z M42.5,30.3l-1-5.3   l8-0.4l0.9,4.7L42.5,30.3z M51.5,24.4l7.5-0.4v4.1L52.4,29L51.5,24.4z M59,22.1l-7.9,0.4L50.2,18H59V22.1z M28.2,18l1,5.6L20.9,24   c-0.1,0-0.1,0-0.1,0l-1.1-6H28.2z M53.8,36l-1-5l6.2-0.8v5L53.8,36z"/>

</g>

<g id="smart_Television"/>

<g id="security"/>

<g id="communication"/>

<g id="remote_control"/>

<g id="satelite_dish"/>

</svg>