<?xml version="1.0" encoding="utf-8"?>

<svg fill="#C14953" height="14px" width="14px" version="1.1" id="_x32_" xmlns="http://www.w3.org/2000/svg" xmlns:xlink="http://www.w3.org/1999/xlink" 
	 viewBox="0 0 512 512"  xml:space="preserve">
<g>
	<path class="st0" d="M505.248,425.662l-29.152-123.97c-14.772-55.105-64.699-93.416-121.749-93.416H157.653
		c-57.05,0-106.986,38.311-121.749,93.416L6.752,425.662c-7.465,35.564,13.069,71.045,47.632,82.294l1.703,0.542
		c31.99,10.413,66.895-3.006,83.688-32.157l25.368-37.51c6.363-11.056,18.154-17.879,30.904-17.879h119.904
		c12.751,0,24.533,6.823,30.905,17.879l25.368,37.51c16.792,29.152,51.697,42.57,83.688,32.157l1.703-0.542
		C492.179,496.707,512.712,461.226,505.248,425.662z M192.374,342.584h-40.841v40.842h-35.556v-40.842H75.143v-35.539h40.834
		v-40.826h35.556v40.826h40.841V342.584z M372.3,257.71c12.367,0,22.388,10.012,22.388,22.379c0,12.351-10.021,22.363-22.388,22.363
		c-12.35,0-22.362-10.012-22.362-22.363C349.938,267.722,359.95,257.71,372.3,257.71z M327.559,347.21
		c-12.35,0-22.371-10.02-22.371-22.395c0-12.342,10.021-22.362,22.371-22.362c12.358,0,22.371,10.02,22.371,22.362
		C349.93,337.19,339.917,347.21,327.559,347.21z M372.3,391.943c-12.35,0-22.362-10.012-22.362-22.363
		c0-12.367,10.012-22.379,22.362-22.379c12.367,0,22.388,10.012,22.388,22.379C394.688,381.931,384.667,391.943,372.3,391.943z
		 M417.05,347.21c-12.35,0-22.362-10.02-22.362-22.395c0-12.342,10.012-22.362,22.362-22.362c12.36,0,22.379,10.02,22.379,22.362
		C439.429,337.19,429.41,347.21,417.05,347.21z"/>
	<path class="st0" d="M162.964,58.878c26.513-18.262,58.494-28.943,93.041-28.95c34.545,0.008,66.519,10.688,93.04,28.95
		c6.806,4.685,16.125,2.965,20.818-3.832c4.684-6.814,2.972-16.125-3.833-20.818C334.748,12.676,296.779-0.008,256.005,0
		c-40.776-0.008-78.753,12.676-110.025,34.228c-6.806,4.693-8.518,14.012-3.834,20.818C146.84,61.852,156.158,63.564,162.964,58.878
		z"/>
	<path class="st0" d="M328.47,111.545c4.016-5.837,2.546-13.828-3.282-17.845h-0.008c-19.649-13.553-43.548-21.536-69.174-21.528
		c-25.628-0.008-49.526,7.974-69.184,21.528c-5.837,4.016-7.307,12.008-3.29,17.836c4.016,5.837,12.008,7.307,17.836,3.29
		c15.59-10.73,34.336-16.993,54.637-17.002c20.3,0.009,39.038,6.271,54.619,17.002C316.462,118.843,324.445,117.373,328.47,111.545z
		"/>
	<path class="st0" d="M227.654,153.146c-4.868,3.349-6.096,10.004-2.755,14.864c3.349,4.868,10.004,6.096,14.863,2.756
		c4.643-3.19,10.18-5.044,16.242-5.044c6.054,0,11.598,1.862,16.224,5.036c4.86,3.348,11.515,2.12,14.864-2.739
		c3.349-4.86,2.121-11.516-2.739-14.864c-8.034-5.544-17.853-8.81-28.349-8.81C245.499,144.336,235.688,147.618,227.654,153.146z"/>
</g>
</svg>